<svg width="96" height="24" viewBox="0 0 96 24" fill="none" xmlns="http://www.w3.org/2000/svg">
<path d="M9.65394 8.02227V12.3009H5.34452V15.1944C5.34452 17.5645 6.91438 18.765 9.19221 18.765C9.46925 18.765 9.7155 18.7342 9.93097 18.7035C10.1464 18.6727 10.3311 18.6419 10.5466 18.6111V22.8897C10.2696 22.9205 10.0541 22.9821 9.90019 23.0129C9.7155 23.0437 9.40769 23.0437 9.00753 23.0437C4.35951 23.0437 0.727295 19.8732 0.727295 15.1944V3.8052H5.34452V8.02227H9.65394ZM19.4332 15.1944V22.8897H14.816V15.2251C14.816 10.1154 18.5713 7.34508 23.3117 7.34508C23.4656 7.34508 23.6811 7.34508 23.8965 7.37586C24.112 7.40664 24.3583 7.4682 24.5737 7.49899V11.9623C24.4198 11.9315 24.2351 11.9007 24.0197 11.87C23.8042 11.8392 23.6195 11.8084 23.4656 11.8084C22.6961 11.8084 22.0804 11.9007 21.5572 12.0547C20.6953 12.3625 19.9257 12.9473 19.6487 13.8708C19.4948 14.2709 19.4332 14.7326 19.4332 15.1944ZM39.8321 15.1944C39.709 12.9473 38.6932 11.6237 36.3538 11.6237C35.7074 11.6237 35.1534 11.7161 34.6916 11.9007C33.2757 12.5472 32.7524 13.7476 32.7524 15.2251C32.7524 15.7177 32.814 16.1794 32.9679 16.5795C33.4296 18.1802 34.8148 18.765 36.3538 18.765C38.6932 18.765 39.8321 17.503 39.8321 15.1944ZM45.6806 22.8897H41.0634C40.7556 22.1202 40.4786 21.3507 40.2939 20.5504C39.2473 22.2741 37.6467 23.0437 35.6766 23.0437C31.2749 23.0437 28.1352 19.3499 28.1352 15.1328C28.1352 10.2693 31.7674 7.34508 36.3538 7.34508C41.2481 7.34508 44.3262 10.4848 44.4494 15.1944C44.4802 15.5945 44.4802 16.0562 44.4802 16.6103C44.4802 18.765 44.8188 20.9197 45.6806 22.8897ZM64.6328 7.49899L58.3226 22.8897H53.7054L47.3952 7.49899H51.9816C52.6588 9.25353 53.336 10.9773 54.0132 12.7318C54.6596 14.4864 55.3368 16.2102 56.014 17.9647C56.6912 16.2102 57.3684 14.4864 58.0456 12.7318C58.692 10.9773 59.3692 9.25353 60.0464 7.49899H64.6328ZM68.3174 7.49899H72.9346V22.8897H68.3174V7.49899ZM70.626 6.05226C69.0561 6.05226 67.948 4.94412 67.948 3.37426C67.948 1.77362 69.0561 0.727051 70.626 0.727051C72.2266 0.727051 73.2732 1.77362 73.2732 3.37426C73.2732 5.00568 72.2574 6.05226 70.626 6.05226ZM89.4243 15.1944C89.3011 12.9473 88.2853 11.6237 85.946 11.6237C85.2995 11.6237 84.7455 11.7161 84.2838 11.9007C82.8678 12.5472 82.3445 13.7476 82.3445 15.2251C82.3445 15.7177 82.4061 16.1794 82.56 16.5795C83.0217 18.1802 84.4069 18.765 85.946 18.765C88.2853 18.765 89.4243 17.503 89.4243 15.1944ZM95.2728 22.8897H90.6555C90.3477 22.1202 90.0707 21.3507 89.886 20.5504C88.8394 22.2741 87.2388 23.0437 85.2688 23.0437C80.867 23.0437 77.7273 19.3499 77.7273 15.1328C77.7273 10.2693 81.3595 7.34508 85.946 7.34508C90.8402 7.34508 93.9184 10.4848 94.0415 15.1944C94.0723 15.5945 94.0723 16.0562 94.0723 16.6103C94.0723 18.765 94.4109 20.9197 95.2728 22.8897Z" fill="#118DF0"/>
</svg>
