<svg version="1.2" xmlns="http://www.w3.org/2000/svg" viewBox="0 0 28 16" width="28" height="16"><style>.a{fill:#ff5f00}.b{fill:#eb001b}.c{fill:#f79e1b}</style><path class="a" d="m10.4 1.7h7v12.6h-7z"/><path class="b" d="m10.9 8c0-2.6 1.2-4.8 3-6.3-1.3-1.1-3-1.7-4.9-1.7-4.4 0-8 3.6-8 8 0 4.4 3.6 8 8 8 1.9 0 3.6-0.6 4.9-1.7-1.8-1.5-3-3.7-3-6.3z"/><path class="c" d="m26.9 8c0 4.4-3.6 8-8 8-1.9 0-3.6-0.6-4.9-1.7 1.8-1.5 3-3.7 3-6.3 0-2.6-1.2-4.8-3-6.3 1.3-1.1 3-1.7 4.9-1.7 4.4 0 8 3.6 8 8z"/></svg>